<?xml version="1.0" standalone="no"?><!DOCTYPE svg PUBLIC "-//W3C//DTD SVG 1.1//EN" "http://www.w3.org/Graphics/SVG/1.1/DTD/svg11.dtd"><svg t="1525247010993" class="icon" style="" viewBox="0 0 1024 1024" version="1.1" xmlns="http://www.w3.org/2000/svg" p-id="1591" xmlns:xlink="http://www.w3.org/1999/xlink" width="200" height="200"><defs><style type="text/css"></style></defs><path d="M203.36 899.52c-42.79-14.92-71.66-54.71-71.83-99l-2.4-632.15c-0.22-58.17 48-105.68 107.39-105.9l489.36-1.87h0.42c46.09 0 87.05 28.71 102 71.56l-23.6 8.25c-11.46-32.81-43-54.81-78.43-54.81H726l-489.38 1.85c-45.65 0.17-82.65 36.42-82.48 80.81l2.4 632.15c0.13 33.73 22.25 64.07 55.05 75.5z" fill="#3D9FF9" p-id="1592"></path><path d="M880 223.54l2.4 632.15c0.19 51.15-42.53 93.16-94.94 93.36l-489.39 1.85c-41.87 0.16-77.75-26.41-90.6-63.18a96.4 96.4 0 0 0 32.2 5.37L729 891.23c52.44-0.23 95.16-42.23 95-93.35l-2.4-632.15a90.18 90.18 0 0 0-5-29.45c36.68 12.81 63.22 47.13 63.4 87.26z" fill="#C5E3FF" p-id="1593"></path><path d="M297.7 963.4c-46.09 0-87.05-28.71-102-71.56l-8.55-24.47 24.47 8.54a83.64 83.64 0 0 0 28 4.67L729 878.73c45.65-0.17 82.65-36.42 82.48-80.81l-2.4-632.15a77.69 77.69 0 0 0-4.34-25.37l-8.55-24.4 24.46 8.52c42.79 14.92 71.66 54.71 71.83 99l2.4 632.15c0.22 58.17-48 105.68-107.39 105.9l-489.37 1.83z m-66.88-58.14a83.46 83.46 0 0 0 66.88 33.14h0.3l489.36-1.86c45.65-0.17 82.65-36.42 82.48-80.81l-2.4-632.15c-0.1-25.71-13-49.45-33.62-64.35q0.21 3.21 0.22 6.45l2.4 632.15c0.22 58.17-48 105.68-107.39 105.9l-489.35 1.86c-2.97 0.01-5.93-0.1-8.88-0.32z" fill="#3D9FF9" p-id="1594"></path><path d="M196.9 191.08l166.64-0.63" fill="#C5E3FF" p-id="1595"></path><path d="M196.9 203.58a12.5 12.5 0 0 1 0-25l166.64-0.63a12.5 12.5 0 0 1 0 25l-166.64 0.63z" fill="#3D9FF9" p-id="1596"></path><path d="M197.59 373.38l166.65-0.63" fill="#C5E3FF" p-id="1597"></path><path d="M197.59 385.88a12.5 12.5 0 0 1 0-25l166.65-0.63a12.5 12.5 0 0 1 0 25l-166.65 0.63z" fill="#3D9FF9" p-id="1598"></path><path d="M198.28 555.68l233.6-0.89" fill="#C5E3FF" p-id="1599"></path><path d="M198.28 568.18a12.5 12.5 0 0 1 0-25l233.6-0.89a12.5 12.5 0 0 1 0 25l-233.6 0.89z" fill="#3D9FF9" p-id="1600"></path><path d="M198.97 737.97l450.39-1.7" fill="#C5E3FF" p-id="1601"></path><path d="M199 750.47a12.5 12.5 0 0 1 0-25l450.38-1.71a12.5 12.5 0 0 1 0 25L199 750.47z" fill="#3D9FF9" p-id="1602"></path><path d="M608.528383 336.681013m-128.679052 0.494095a128.68 128.68 0 1 0 257.358103-0.988189 128.68 128.68 0 1 0-257.358103 0.988189Z" fill="#C5E3FF" p-id="1603"></path><path d="M608.5 477.9a141.18 141.18 0 0 1-0.5-282.37h0.54c77.6 0 140.88 63 141.17 140.65C750 414 686.9 477.6 609 477.89z m0-257.36h-0.45a116.18 116.18 0 0 0 0.43 232.36h0.52a116.18 116.18 0 0 0-0.43-232.36z" fill="#3D9FF9" p-id="1604"></path><path d="M700 562.19l64.83 128.43" fill="#C5E3FF" p-id="1605"></path><path d="M764.84 703.13a12.5 12.5 0 0 1-11.17-6.87l-64.83-128.44a12.5 12.5 0 1 1 22.32-11.26L776 685a12.5 12.5 0 0 1-11.15 18.14z" fill="#3D9FF9" p-id="1606"></path></svg>