<?xml version="1.0" standalone="no"?><!DOCTYPE svg PUBLIC "-//W3C//DTD SVG 1.1//EN" "http://www.w3.org/Graphics/SVG/1.1/DTD/svg11.dtd"><svg t="1526020832674" class="icon" style="" viewBox="0 0 1024 1024" version="1.1" xmlns="http://www.w3.org/2000/svg" p-id="1252" xmlns:xlink="http://www.w3.org/1999/xlink" width="200" height="200"><defs><style type="text/css"></style></defs><path d="M806.196 901.325a106.98 106.98 0 1 1 105.058-106.82 106.18 106.18 0 0 1-105.058 106.82z m-405.82-292.754h110.503V320.3h32.03v288.27h16.015V320.3h32.03v288.27h16.015V320.3h32.03v288.27h16.015V321.1h32.03v287.47h274.818c24.182 0 43.72-12.492 43.72-29.628V182.41c0-17.136-19.538-32.03-43.72-32.03H400.375c-24.182 0-43.72 14.093-43.72 32.03v396.532c-0.481 17.136 19.057 29.628 43.72 29.628z m-117.39 96.09a103.937 103.937 0 0 0 0 208.195 103.937 103.937 0 0 0 0-208.195z m67.102-64.06a29.948 29.948 0 0 1-25.624-32.03V264.728H222.288a69.825 69.825 0 0 0-50.447 26.105L34.592 484.774a121.234 121.234 0 0 0-18.577 59.736v192.18a32.03 32.03 0 0 0 32.03 32.03H160.15a128.12 128.12 0 0 1 246.15 0h276.9s7.367-101.374 131.324-101.374c91.926 0 124.596 101.375 124.596 101.375 64.06 0 69.826 5.285 69.826-32.03V640.6z m-80.075-85.52a32.03 32.03 0 0 1-32.03 32.03h-128.12a32.03 32.03 0 0 1-32.03-32.03v-5.286A123.636 123.636 0 0 1 96.09 490.54L199.067 340.8a62.779 62.779 0 0 1 45.002-26.746 30.108 30.108 0 0 1 26.585 32.03V554.28z" p-id="1253" fill="#2c2c2c"></path></svg>