<?xml version="1.0" standalone="no"?><!DOCTYPE svg PUBLIC "-//W3C//DTD SVG 1.1//EN" "http://www.w3.org/Graphics/SVG/1.1/DTD/svg11.dtd"><svg t="1525681813636" class="icon" style="" viewBox="0 0 1024 1024" version="1.1" xmlns="http://www.w3.org/2000/svg" p-id="1452" xmlns:xlink="http://www.w3.org/1999/xlink" width="200" height="200"><defs><style type="text/css"></style></defs><path d="M797.064 768c1.932 0.188 3.889 0.29 5.87 0.29 1.982 0 3.939-0.29 5.871-0.29H797.064zM863.134 708.29c0-1.284-0.134-2.554-0.134-3.818v7.636c0-1.264 0.134-2.535 0.134-3.818zM280.14 768.29c1.981 0 3.938-0.102 5.87-0.29h-11.74c1.932 0.188 3.889 0.29 5.87 0.29z" p-id="1453"></path><path d="M930 900H124V94c0-16.568-13.432-30-30-30S64 77.432 64 94v806c0 33.137 26.863 60 60 60h806c16.568 0 30-13.432 30-30s-13.432-30-30-30z" p-id="1454"></path><path d="M274.271 768h534.535C837.934 765 861 741.513 863 712.108V275.914L550.621 584.37l-161.974-133.6L220 675.694l0.14 32.306c0 31.156 23.749 57.049 54.131 60z" p-id="1455"></path></svg>