<?xml version="1.0" standalone="no"?><!DOCTYPE svg PUBLIC "-//W3C//DTD SVG 1.1//EN" "http://www.w3.org/Graphics/SVG/1.1/DTD/svg11.dtd"><svg t="1525246995871" class="icon" style="" viewBox="0 0 1024 1024" version="1.1" xmlns="http://www.w3.org/2000/svg" p-id="1173" xmlns:xlink="http://www.w3.org/1999/xlink" width="200" height="200"><defs><style type="text/css"></style></defs><path d="M512.32 979.5c-3.75 0-7.49 0-11.25-0.13A467.62 467.62 0 0 1 340.15 77.11a465 465 0 0 1 182.78-32.48 467.62 467.62 0 0 1 160.92 902.26 464 464 0 0 1-171.53 32.61z m-0.62-910a442.63 442.63 0 0 0-181.41 846.1 442.62 442.62 0 0 0 363.43-807.19 439.73 439.73 0 0 0-171.38-38.79q-5.34-0.12-10.65-0.12z" fill="#3D9FF9" p-id="1174"></path><path d="M612.51 895.55a29.2 29.2 0 0 1-24.39-13.09l-160.4-237.65a29.62 29.62 0 0 1 1.07-34.66l307-399.37a29.66 29.66 0 0 1 52.41 24.72l-146.58 637a29.27 29.27 0 0 1-23.49 22.5 30.7 30.7 0 0 1-5.62 0.55z m146.55-671.46a4.28 4.28 0 0 0-3.47 1.91l-307 399.37a4.65 4.65 0 0 0-0.17 5.44l160.43 237.67a4.66 4.66 0 0 0 8.4-1.56l146.58-637a4.28 4.28 0 0 0-2.55-5.25 5.23 5.23 0 0 0-2.22-0.58z" fill="#3D9FF9" p-id="1175"></path><path d="M733.34 200.5L148.68 492.85a17.16 17.16 0 0 0 1.69 31.42l268.73 100a17.16 17.16 0 0 0 19.34-5.32L754.37 226.6c11.56-14.35-4.55-34.34-21.03-26.1z" fill="#C5E3FF" p-id="1176"></path><path d="M425.1 637.84a29.66 29.66 0 0 1-10.36-1.84L146 536a29.66 29.66 0 0 1-2.92-54.32l584.67-292.36a29.66 29.66 0 0 1 36.36 45.12L448.18 626.78a29.62 29.62 0 0 1-23.08 11.06z m316.11-426.75a5.09 5.09 0 0 0-2.28 0.59L154.28 504a4.66 4.66 0 0 0 0.46 8.53l268.73 100a4.65 4.65 0 0 0 5.25-1.44l315.92-392.33a4.28 4.28 0 0 0 0-5.84 4.42 4.42 0 0 0-3.43-1.83z m-7.87-10.58z" fill="#3D9FF9" p-id="1177"></path></svg>