<?xml version="1.0" standalone="no"?><!DOCTYPE svg PUBLIC "-//W3C//DTD SVG 1.1//EN" "http://www.w3.org/Graphics/SVG/1.1/DTD/svg11.dtd"><svg t="1524023111934" class="icon" style="" viewBox="0 0 1024 1024" version="1.1" xmlns="http://www.w3.org/2000/svg" p-id="2241" xmlns:xlink="http://www.w3.org/1999/xlink" width="200" height="200"><defs><style type="text/css"></style></defs><path d="M672.6 959.6h-430s322.5-179.2 250.9-215c-71.7-35.8-215-35.8-215-107.5S386 529.6 386 529.6h71.7s-128.4 61.2-35.8 107.5 286.7 35.8 358.4 143.3-107.7 179.2-107.7 179.2z" fill="#CCCCCC" p-id="2242"></path><path d="M672.6 63.6c-158.3 0-286.7 128.4-286.7 286.7 0 179.2 143.3 250.9 286.7 394.2 143.3-143.3 286.7-215 286.7-394.2C959.2 192 830.9 63.6 672.6 63.6z m0 501.8c-118.8 0-215-96.3-215-215s96.3-215 215-215 215 96.3 215 215-96.3 215-215 215z" fill="#3366CC" p-id="2243"></path><path d="M633.7 501.1l38.9-150.8H565l143.4-179.1-35.8 143.3h107.5z" fill="#3366CC" p-id="2244"></path><path d="M206.7 207c-76.3 0-143.3 67-143.3 143.3 0 92.2 107.5 143.3 143.3 215 35.8-71.7 143.3-122.9 143.3-215C350 274 283 207 206.7 207z m0 215c-39.6 0-71.7-32.1-71.7-71.7s32.1-71.7 71.7-71.7 71.7 32.1 71.7 71.7-32.1 71.7-71.7 71.7z" fill="#CCCCCC" p-id="2245"></path></svg>