<?xml version="1.0" standalone="no"?><!DOCTYPE svg PUBLIC "-//W3C//DTD SVG 1.1//EN" "http://www.w3.org/Graphics/SVG/1.1/DTD/svg11.dtd"><svg t="1524023114904" class="icon" style="" viewBox="0 0 1024 1024" version="1.1" xmlns="http://www.w3.org/2000/svg" p-id="2373" xmlns:xlink="http://www.w3.org/1999/xlink" width="200" height="200"><defs><style type="text/css"></style></defs><path d="M415.4 893.9L453.6 588H262.4l267.7-458.9-38.2 306h191.2z" fill="#3366CC" p-id="2374"></path><path d="M950.8 396.8h-38.2v-76.5c0-21-17.2-38.2-38.2-38.2h-260l-30.6 76.5h214.1c21 0 38.2 17.2 38.2 38.2v229.4c0 21-17.2 38.2-38.2 38.2H629.5L599 741h275.3c21 0 38.2-17.2 38.2-38.2v-76.5h38.2c21 0 38.2-17.2 38.2-38.2v-153c0.1-21.1-17.1-38.3-38.1-38.3zM361.9 664.5H147.7c-21 0-38.2-17.2-38.2-38.2V396.8c0-21 17.2-38.2 38.2-38.2H316l30.6-76.5H71.2c-21 0-38.2 17.2-38.2 38.2v382.4c0 21 17.2 38.2 38.2 38.2h260l30.7-76.4z" fill="#CCCCCC" p-id="2375"></path></svg>