<?xml version="1.0" standalone="no"?><!DOCTYPE svg PUBLIC "-//W3C//DTD SVG 1.1//EN" "http://www.w3.org/Graphics/SVG/1.1/DTD/svg11.dtd"><svg t="1524023103756" class="icon" style="" viewBox="0 0 1024 1024" version="1.1" xmlns="http://www.w3.org/2000/svg" p-id="1977" xmlns:xlink="http://www.w3.org/1999/xlink" width="200" height="200"><defs><style type="text/css"></style></defs><path d="M169.2 610.5c0 28.4 23 51.4 51.4 51.4h154.9v-34.4H237.2c-18.6 0-33.7-15.1-33.7-33.7V421.2h34.4l68.8-68.8V180.5h-34.4v-68.8h-34.4v68.8H134.8v-68.8h-34.4v68.8H66v171.9l68.8 68.8h34.4v189.3z m-68.8-326.8v-34.4h171.9v34.4H100.4z m34.4 68.8l-34.4-34.4h171.9l-34.4 34.4H134.8z" fill="#CCCCCC" p-id="1978"></path><path d="M684.9 386.8C533 386.8 409.8 510 409.8 661.9 409.8 813.8 533 937 684.9 937S960 813.8 960 661.9c0-151.9-123.2-275.1-275.1-275.1z m0 481.4c-113.9 0-206.3-92.4-206.3-206.3S571 455.6 684.9 455.6 891.2 548 891.2 661.9s-92.3 206.3-206.3 206.3z" fill="#3366CC" p-id="1979"></path><path d="M684.9 490C590 490 513 567 513 661.9c0 95 77 171.9 171.9 171.9s171.9-77 171.9-171.9S779.9 490 684.9 490z m0 275.1c-57 0-103.2-46.2-103.2-103.2s46.2-103.2 103.2-103.2 103.2 46.2 103.2 103.2-46.2 103.2-103.2 103.2z" fill="#CCCCCC" p-id="1980"></path><path d="M753.7 661.9c0 19-7.7 36.2-20.1 48.6l72.9 72.9c31.1-31.1 50.4-74.1 50.4-121.6 0-95-77-171.9-171.9-171.9v103.2c37.9 0.1 68.7 30.8 68.7 68.8z" fill="#3366CC" p-id="1981"></path></svg>