<?xml version="1.0" standalone="no"?><!DOCTYPE svg PUBLIC "-//W3C//DTD SVG 1.1//EN" "http://www.w3.org/Graphics/SVG/1.1/DTD/svg11.dtd"><svg t="1524023119814" class="icon" style="" viewBox="0 0 1024 1024" version="1.1" xmlns="http://www.w3.org/2000/svg" p-id="2635" xmlns:xlink="http://www.w3.org/1999/xlink" width="200" height="200"><defs><style type="text/css"></style></defs><path d="M222.8 959.6s204.4-327 163.5-408.8C345.4 673.4 141 918.7 141 918.7s-122.6-286.2 0-531.4c81.8-163.5 286.2-204.4 327-327C631.6 142 672.5 346.4 631.6 550.8c-66.1 330.5-408.8 408.8-408.8 408.8z" fill="#3366CC" p-id="2636"></path><path d="M795.1 959.6s75.8-206.3 40.9-245.3c-4.1 73.9-81.8 245.3-81.8 245.3s-112.6-132.2-81.8-286.2C693 570.8 791 502 795.1 428.1c102.6 20.5 155.3 126.2 163.5 245.3 13.3 192.5-163.5 286.2-163.5 286.2z" fill="#CCCCCC" p-id="2637"></path></svg>