<?xml version="1.0" standalone="no"?><!DOCTYPE svg PUBLIC "-//W3C//DTD SVG 1.1//EN" "http://www.w3.org/Graphics/SVG/1.1/DTD/svg11.dtd"><svg t="1524023092333" class="icon" style="" viewBox="0 0 1024 1024" version="1.1" xmlns="http://www.w3.org/2000/svg" p-id="1562" xmlns:xlink="http://www.w3.org/1999/xlink" width="200" height="200"><defs><style type="text/css"></style></defs><path d="M270.1 280.1c-57.1 0-103.4 46.3-103.4 103.4S213 486.9 270.1 486.9s103.4-46.3 103.4-103.4-46.3-103.4-103.4-103.4z m0 172.3c-38.1 0-68.9-30.9-68.9-68.9s30.9-68.9 68.9-68.9 68.9 30.9 68.9 68.9-30.8 68.9-68.9 68.9z" fill="#CCCCCC" p-id="1563"></path><path d="M270.1 383.5m-34.5 0a34.5 34.5 0 1 0 69 0 34.5 34.5 0 1 0-69 0Z" fill="#3366CC" p-id="1564"></path><path d="M511.3 280.1c-57.1 0-103.4 46.3-103.4 103.4s46.3 103.4 103.4 103.4 103.4-46.3 103.4-103.4-46.3-103.4-103.4-103.4z m0 172.3c-38.1 0-68.9-30.9-68.9-68.9s30.9-68.9 68.9-68.9 68.9 30.9 68.9 68.9-30.8 68.9-68.9 68.9z" fill="#CCCCCC" p-id="1565"></path><path d="M511.3 383.5m-34.5 0a34.5 34.5 0 1 0 69 0 34.5 34.5 0 1 0-69 0Z" fill="#3366CC" p-id="1566"></path><path d="M752.6 280.1c-57.1 0-103.4 46.3-103.4 103.4s46.3 103.4 103.4 103.4c57.1 0 103.4-46.3 103.4-103.4s-46.3-103.4-103.4-103.4z m0 172.3c-38.1 0-68.9-30.9-68.9-68.9s30.9-68.9 68.9-68.9 68.9 30.9 68.9 68.9-30.9 68.9-68.9 68.9z" fill="#CCCCCC" p-id="1567"></path><path d="M752.6 383.5m-34.5 0a34.5 34.5 0 1 0 69 0 34.5 34.5 0 1 0-69 0Z" fill="#3366CC" p-id="1568"></path><path d="M270.1 521.3c-57.1 0-103.4 46.3-103.4 103.4 0 57.1 46.3 103.4 103.4 103.4s103.4-46.3 103.4-103.4c0-57.1-46.3-103.4-103.4-103.4z m0 172.3c-38.1 0-68.9-30.9-68.9-68.9 0-38.1 30.9-68.9 68.9-68.9s68.9 30.9 68.9 68.9c0 38.1-30.8 68.9-68.9 68.9z" fill="#CCCCCC" p-id="1569"></path><path d="M270.1 624.7m-34.5 0a34.5 34.5 0 1 0 69 0 34.5 34.5 0 1 0-69 0Z" fill="#3366CC" p-id="1570"></path><path d="M511.3 521.3c-57.1 0-103.4 46.3-103.4 103.4 0 57.1 46.3 103.4 103.4 103.4s103.4-46.3 103.4-103.4c0-57.1-46.3-103.4-103.4-103.4z m0 172.3c-38.1 0-68.9-30.9-68.9-68.9 0-38.1 30.9-68.9 68.9-68.9s68.9 30.9 68.9 68.9c0.1 38.1-30.8 68.9-68.9 68.9z" fill="#CCCCCC" p-id="1571"></path><path d="M511.3 624.7m-34.5 0a34.5 34.5 0 1 0 69 0 34.5 34.5 0 1 0-69 0Z" fill="#3366CC" p-id="1572"></path><path d="M752.6 521.3c-57.1 0-103.4 46.3-103.4 103.4 0 57.1 46.3 103.4 103.4 103.4 57.1 0 103.4-46.3 103.4-103.4-0.1-57.1-46.3-103.4-103.4-103.4z m0 172.3c-38.1 0-68.9-30.9-68.9-68.9 0-38.1 30.9-68.9 68.9-68.9s68.9 30.9 68.9 68.9c0 38.1-30.9 68.9-68.9 68.9z" fill="#CCCCCC" p-id="1573"></path><path d="M752.6 624.7m-34.5 0a34.5 34.5 0 1 0 69 0 34.5 34.5 0 1 0-69 0Z" fill="#3366CC" p-id="1574"></path><path d="M924.9 176.7H856v-34.5H752.6v34.5H270.1v-34.5H166.7v34.5H97.8c-19 0-34.5 15.5-34.5 34.5V797c0 19 15.5 34.5 34.5 34.5h827.1c19 0 34.5-15.5 34.5-34.5V211.2c-0.1-19-15.6-34.5-34.5-34.5z m-34.5 551.4c0 19-15.5 34.5-34.5 34.5H166.7c-19 0-34.5-15.5-34.5-34.5v-448c0-19 15.5-34.5 34.5-34.5h689.2c19 0 34.5 15.5 34.5 34.5v448z" fill="#3366CC" p-id="1575"></path></svg>