<?xml version="1.0" standalone="no"?><!DOCTYPE svg PUBLIC "-//W3C//DTD SVG 1.1//EN" "http://www.w3.org/Graphics/SVG/1.1/DTD/svg11.dtd"><svg t="1524023078453" class="icon" style="" viewBox="0 0 1024 1024" version="1.1" xmlns="http://www.w3.org/2000/svg" p-id="1036" xmlns:xlink="http://www.w3.org/1999/xlink" width="200" height="200"><defs><style type="text/css"></style></defs><path d="M496.1 176.4L372.5 83.6v61.8H186.9c-68.3 0-123.6 55.3-123.6 123.6v61.9h61.8v-62.2c0-34 27.5-61.5 61.5-61.5h185.8V269l123.7-92.6zM898 701.9V764c0 34-27.5 61.5-61.5 61.5H650.7v-61.8L527 856.4l123.7 92.7v-61.8h185.5c68.3 0 123.6-55.3 123.6-123.6v-61.9H898zM739.4 609.1H283.7c-2.2 0-4-1.8-4-4V427.7c0-2.2 1.8-4 4-4h455.7c2.2 0 4 1.8 4 4v177.5c0 2.1-1.8 3.9-4 3.9z" fill="#3366CC" p-id="1037"></path><path d="M867.1 423.7h-30.9v-61.8c0-17-13.9-30.9-30.9-30.9H217.9c-17 0-30.9 13.9-30.9 30.9V671c0 17 13.9 30.9 30.9 30.9h587.3c17 0 30.9-13.9 30.9-30.9v-61.8H867c17 0 30.9-13.9 30.9-30.9V454.6c0.1-17-13.8-30.9-30.8-30.9z m-92.8 185.4c0 17-13.9 30.9-30.9 30.9H279.7c-17 0-30.9-13.9-30.9-30.9V423.7c0-17 13.9-30.9 30.9-30.9h463.7c17 0 30.9 13.9 30.9 30.9v185.4z" fill="#CCCCCC" p-id="1038"></path></svg>