<?xml version="1.0" standalone="no"?><!DOCTYPE svg PUBLIC "-//W3C//DTD SVG 1.1//EN" "http://www.w3.org/Graphics/SVG/1.1/DTD/svg11.dtd"><svg t="1525847982188" class="icon" style="" viewBox="0 0 1024 1024" version="1.1" xmlns="http://www.w3.org/2000/svg" p-id="2420" xmlns:xlink="http://www.w3.org/1999/xlink" width="200" height="200"><defs><style type="text/css"></style></defs><path d="M633.9 203.2c31.2-38.5 46.8-77.1 46.9-122.1v-8.6-8.6c-22.3 2.2-44.6 8.6-71.4 19.3-24.6 12.9-44.7 27.9-62.5 45-31.3 36.4-49.1 75-49.1 117.8v17.2c53.5 4.3 95.9-15 136.1-60zM812.4 666.4c-40.2-36.4-60.3-83.6-60.3-137.2-2.3-70.7 31.2-126.4 95.9-165-37.9-51.4-91.5-79.3-165.1-85.7-26.8-2.2-58 4.2-98.2 17.1-42.4 15-66.9 23.6-73.6 23.6-11.2 0-33.5-6.4-64.7-19.3-31.3-15-60.3-21.4-82.6-21.4-37.9 0-73.6 10.7-107.1 30s-60.3 45-78.1 79.3c-24.5 40.7-37.9 92.2-37.9 150 0 51.4 9 105 26.8 156.4 17.8 49.3 40.1 94.3 66.9 130.7 24.6 34.3 44.7 60 62.5 75 26.8 23.6 51.3 36.4 78.1 34.3 17.9 0 40.2-6.4 69.2-19.3 26.8-10.7 53.6-17.1 78.1-17.1 24.6 0 49.1 6.4 75.9 17.1 29 10.7 53.6 17.1 71.4 17.1 26.8-2.2 53.6-12.9 78.1-34.3 9-6.4 17.9-17.1 26.8-27.8 9-12.8 20.1-25.7 33.5-42.8 8.9-12.9 15.6-25.7 24.5-38.6s15.6-27.9 22.3-45c2.2-6.4 6.7-12.9 8.9-19.3s4.5-12.8 6.7-21.4c-20.1-6.4-40.2-21.4-58-36.4z" p-id="2421"></path></svg>