<?xml version="1.0" standalone="no"?><!DOCTYPE svg PUBLIC "-//W3C//DTD SVG 1.1//EN" "http://www.w3.org/Graphics/SVG/1.1/DTD/svg11.dtd"><svg t="1524023127747" class="icon" style="" viewBox="0 0 1024 1024" version="1.1" xmlns="http://www.w3.org/2000/svg" p-id="3027" xmlns:xlink="http://www.w3.org/1999/xlink" width="200" height="200"><defs><style type="text/css"></style></defs><path d="M926.1 165.7H96.5c-18.3 0-33.2 14.9-33.2 33.2v597.3c0 18.3 14.9 33.2 33.2 33.2h829.6c18.3 0 33.2-14.9 33.2-33.2V198.9c0-18.3-14.9-33.2-33.2-33.2zM893 729.8c0 18.3-14.9 33.2-33.2 33.2H162.9c-18.3 0-33.2-14.9-33.2-33.2V265.2c0-18.3 14.9-33.2 33.2-33.2h696.9c18.3 0 33.2 14.9 33.2 33.2v464.6z" fill="#3366CC" p-id="3028"></path><path d="M162.9 331.6h696.9v33.2H162.9zM162.9 431.2h696.9v33.2H162.9zM162.9 530.7h696.9v33.2H162.9zM162.9 630.3h696.9v33.2H162.9z" fill="#CCCCCC" p-id="3029"></path><path d="M826.6 529.8L721.9 486c-12.7-3.2-26.2-0.5-36.8 7.4L588.8 577c-13.6 10.2-32.9 7.8-43.5-5.5l-92.7-148c-7.5-9.4-22.4-7.4-27.2 3.7l-81.7 201.3c-6 14.9-28 17.5-39 4.7L202.8 505.9c-3.8-4.8-3.4-11.6 0.9-15.9l11.7-11.7c4-4 10.5-3.7 14.1 0.6l69.1 82c10.4 10.4 25.6 8.5 30.7-5.2L409.8 348c7.4-19.7 34.4-21.9 44.9-3.6l98 165.6c8 14.1 26.6 17.9 39.6 8.2l83.4-73.4c11.3-8.5 26.3-10.5 39.4-5.2l137.8 55.1c3.3 1.3 4.1 5.5 1.6 8l-14.9 24.5c-3.4 3.5-8.6 4.5-13 2.6zM162.9 265.2h33.2v33.2h-33.2zM229.3 265.2h33.2v33.2h-33.2zM727 696.6h132.7v33.2H727z" fill="#3366CC" p-id="3030"></path></svg>